<?xml version="1.0" encoding="UTF-8" standalone="no"?>
<!DOCTYPE svg PUBLIC "-//W3C//DTD SVG 1.1//EN" "http://www.w3.org/Graphics/SVG/1.1/DTD/svg11.dtd">
<svg width="100%" height="100%" viewBox="0 0 1024 1024" version="1.1" xmlns="http://www.w3.org/2000/svg" xmlns:xlink="http://www.w3.org/1999/xlink" xml:space="preserve" xmlns:serif="http://www.serif.com/" style="fill-rule:evenodd;clip-rule:evenodd;stroke-linecap:round;stroke-linejoin:round;stroke-miterlimit:1.5;">
    <g transform="matrix(2.88843,0,0,2.88843,-250.813,-201.416)">
        <g transform="matrix(0.544108,0,0,0.548647,150.179,124.518)">
            <ellipse cx="87.052" cy="153.085" rx="27.568" ry="27.34" style="stroke:black;stroke-width:0.63px;"/>
        </g>
        <g transform="matrix(0.41715,0,0,0.42063,183.588,105.613)">
            <ellipse cx="87.052" cy="153.085" rx="27.568" ry="27.34" style="stroke:black;stroke-width:0.83px;"/>
        </g>
        <g transform="matrix(0.41715,0,0,0.42063,139.337,182.16)">
            <ellipse cx="87.052" cy="153.085" rx="27.568" ry="27.34" style="stroke:black;stroke-width:0.83px;"/>
        </g>
        <g transform="matrix(0.41715,0,0,0.42063,183.588,258.839)">
            <ellipse cx="87.052" cy="153.085" rx="27.568" ry="27.34" style="stroke:black;stroke-width:0.83px;"/>
        </g>
        <g transform="matrix(0.326465,0,0,0.329188,169.125,311.074)">
            <ellipse cx="87.052" cy="153.085" rx="27.568" ry="27.34" style="stroke:black;stroke-width:1.06px;"/>
        </g>
        <g transform="matrix(0.326465,0,0,0.329188,125.231,234.177)">
            <ellipse cx="87.052" cy="153.085" rx="27.568" ry="27.34" style="stroke:black;stroke-width:1.06px;"/>
        </g>
        <g transform="matrix(0.326465,0,0,0.329188,169.125,234.177)">
            <ellipse cx="87.052" cy="153.085" rx="27.568" ry="27.34" style="stroke:black;stroke-width:1.06px;"/>
        </g>
        <g transform="matrix(0.326465,0,0,0.329188,346.115,158.114)">
            <ellipse cx="87.052" cy="153.085" rx="27.568" ry="27.34" style="stroke:black;stroke-width:1.06px;"/>
        </g>
        <g transform="matrix(0.326465,0,0,0.329188,302.419,158.114)">
            <ellipse cx="87.052" cy="153.085" rx="27.568" ry="27.34" style="stroke:black;stroke-width:1.06px;"/>
        </g>
        <g transform="matrix(0.326465,0,0,0.329188,213.794,81.1502)">
            <ellipse cx="87.052" cy="153.085" rx="27.568" ry="27.34" style="stroke:black;stroke-width:1.06px;"/>
        </g>
        <g transform="matrix(0.253917,0,0,0.256035,242.353,54.3069)">
            <ellipse cx="87.052" cy="153.085" rx="27.568" ry="27.34" style="stroke:black;stroke-width:1.36px;"/>
        </g>
        <g transform="matrix(0.253917,0,0,0.256035,153.547,361.284)">
            <ellipse cx="87.052" cy="153.085" rx="27.568" ry="27.34" style="stroke:black;stroke-width:1.36px;"/>
        </g>
        <g transform="matrix(0.253917,0,0,0.256035,197.797,361.284)">
            <ellipse cx="87.052" cy="153.085" rx="27.568" ry="27.34" style="stroke:black;stroke-width:1.36px;"/>
        </g>
        <g transform="matrix(0.253917,0,0,0.256035,242.353,361.284)">
            <ellipse cx="87.052" cy="153.085" rx="27.568" ry="27.34" style="stroke:black;stroke-width:1.36px;"/>
        </g>
        <g transform="matrix(0.253917,0,0,0.256035,286.358,54.3069)">
            <ellipse cx="87.052" cy="153.085" rx="27.568" ry="27.34" style="stroke:black;stroke-width:1.36px;"/>
        </g>
        <g transform="matrix(0.253917,0,0,0.256035,330.647,54.3069)">
            <ellipse cx="87.052" cy="153.085" rx="27.568" ry="27.34" style="stroke:black;stroke-width:1.36px;"/>
        </g>
        <g transform="matrix(0.326465,0,0,0.329188,258.093,81.1502)">
            <ellipse cx="87.052" cy="153.085" rx="27.568" ry="27.34" style="stroke:black;stroke-width:1.06px;"/>
        </g>
        <g transform="matrix(0.326465,0,0,0.329188,302.419,81.1502)">
            <ellipse cx="87.052" cy="153.085" rx="27.568" ry="27.34" style="stroke:black;stroke-width:1.06px;"/>
        </g>
        <g transform="matrix(0.326465,0,0,0.329188,213.794,311.074)">
            <ellipse cx="87.052" cy="153.085" rx="27.568" ry="27.34" style="stroke:black;stroke-width:1.06px;"/>
        </g>
        <g transform="matrix(0.326465,0,0,0.329188,258.093,311.074)">
            <ellipse cx="87.052" cy="153.085" rx="27.568" ry="27.34" style="stroke:black;stroke-width:1.06px;"/>
        </g>
        <g transform="matrix(0.41715,0,0,0.42063,228.143,258.839)">
            <ellipse cx="87.052" cy="153.085" rx="27.568" ry="27.34" style="stroke:black;stroke-width:0.83px;"/>
        </g>
        <g transform="matrix(0.41715,0,0,0.42063,272.148,258.839)">
            <ellipse cx="87.052" cy="153.085" rx="27.568" ry="27.34" style="stroke:black;stroke-width:0.83px;"/>
        </g>
        <g transform="matrix(0.41715,0,0,0.42063,183.588,182.16)">
            <ellipse cx="87.052" cy="153.085" rx="27.568" ry="27.34" style="stroke:black;stroke-width:0.83px;"/>
        </g>
        <g transform="matrix(0.41715,0,0,0.42063,272.148,182.16)">
            <ellipse cx="87.052" cy="153.085" rx="27.568" ry="27.34" style="stroke:black;stroke-width:0.83px;"/>
        </g>
        <g transform="matrix(0.41715,0,0,0.42063,316.437,182.16)">
            <ellipse cx="87.052" cy="153.085" rx="27.568" ry="27.34" style="stroke:black;stroke-width:0.83px;"/>
        </g>
        <g transform="matrix(0.41715,0,0,0.42063,228.143,105.613)">
            <ellipse cx="87.052" cy="153.085" rx="27.568" ry="27.34" style="stroke:black;stroke-width:0.83px;"/>
        </g>
        <g transform="matrix(0.41715,0,0,0.42063,272.148,105.613)">
            <ellipse cx="87.052" cy="153.085" rx="27.568" ry="27.34" style="stroke:black;stroke-width:0.83px;"/>
        </g>
        <g transform="matrix(0.544108,0,0,0.548647,194.848,124.518)">
            <ellipse cx="87.052" cy="153.085" rx="27.568" ry="27.34" style="stroke:black;stroke-width:0.63px;"/>
        </g>
        <g transform="matrix(0.544108,0,0,0.548647,239.147,124.518)">
            <ellipse cx="87.052" cy="153.085" rx="27.568" ry="27.34" style="stroke:black;stroke-width:0.63px;"/>
        </g>
        <g transform="matrix(0.544108,0,0,0.548647,217.091,162.563)">
            <ellipse cx="87.052" cy="153.085" rx="27.568" ry="27.34" style="stroke:black;stroke-width:0.63px;"/>
        </g>
        <g transform="matrix(0.544108,0,0,0.548647,194.848,200.581)">
            <ellipse cx="87.052" cy="153.085" rx="27.568" ry="27.34" style="stroke:black;stroke-width:0.63px;"/>
        </g>
        <g transform="matrix(0.544108,0,0,0.548647,239.147,200.581)">
            <ellipse cx="87.052" cy="153.085" rx="27.568" ry="27.34" style="stroke:black;stroke-width:0.63px;"/>
        </g>
        <g transform="matrix(0.544108,0,0,0.548647,283.473,200.581)">
            <ellipse cx="87.052" cy="153.085" rx="27.568" ry="27.34" style="stroke:black;stroke-width:0.63px;"/>
        </g>
    </g>
</svg>
